<svg width="1072" height="1072" viewBox="0 0 1072 1072" fill="none" xmlns="http://www.w3.org/2000/svg">
<rect width="1071.68" height="1071.68" rx="535.84" fill="#282828"/>
<path d="M353.912 525.386C353.912 566.38 320.68 599.612 279.687 599.612C238.693 599.612 205.461 566.38 205.461 525.386C205.461 484.392 238.693 451.16 279.687 451.16C320.68 451.16 353.912 484.392 353.912 525.386ZM248.302 525.386C248.302 542.719 262.354 556.77 279.687 556.77C297.02 556.77 311.071 542.719 311.071 525.386C311.071 508.053 297.02 494.001 279.687 494.001C262.354 494.001 248.302 508.053 248.302 525.386Z" fill="#BEFF6C"/>
<path d="M353.912 618.602C353.912 638.288 346.092 657.168 332.172 671.088C318.252 685.008 299.373 692.828 279.687 692.828C260.001 692.828 241.121 685.008 227.201 671.088C213.281 657.168 205.461 638.288 205.461 618.602L248.302 618.602C248.302 626.926 251.609 634.909 257.494 640.795C263.38 646.68 271.363 649.987 279.687 649.987C288.01 649.987 295.993 646.68 301.879 640.795C307.765 634.909 311.071 626.926 311.071 618.602H353.912Z" fill="#BEFF6C"/>
<path d="M514.553 525.386C514.553 566.38 481.321 599.612 440.327 599.612C399.334 599.612 366.102 566.38 366.102 525.386C366.102 484.392 399.334 451.16 440.327 451.16C481.321 451.16 514.553 484.392 514.553 525.386ZM408.943 525.386C408.943 542.719 422.994 556.77 440.327 556.77C457.66 556.77 471.712 542.719 471.712 525.386C471.712 508.053 457.66 494.001 440.327 494.001C422.994 494.001 408.943 508.053 408.943 525.386Z" fill="#BEFF6C"/>
<path d="M481.758 468.422C481.758 458.889 489.486 451.16 499.02 451.16H502.472C512.005 451.16 519.734 458.889 519.734 468.422V582.35C519.734 591.883 512.005 599.612 502.472 599.612H499.02C489.486 599.612 481.758 591.883 481.758 582.35V468.422Z" fill="#BEFF6C"/>
<path d="M578.726 507.566C576.534 510.45 573.043 511.893 568.255 511.893C563.466 511.893 558.966 509.7 554.754 505.315C550.6 500.873 548.523 495.709 548.523 489.824C548.523 483.94 550.629 478.776 554.841 474.333C559.052 469.891 563.668 467.67 568.687 467.67C570.649 467.67 572.437 468.045 574.053 468.795C575.668 469.487 576.765 470.15 577.341 470.785C577.976 471.362 578.467 471.91 578.813 472.429C578.986 470.814 579.563 469.602 580.544 468.795C581.582 467.929 583.226 467.497 585.476 467.497C587.727 467.497 589.371 467.67 590.409 468.016C591.448 468.362 592.169 468.968 592.573 469.833C593.034 470.641 593.294 471.362 593.352 471.997C593.467 472.631 593.525 473.612 593.525 474.939V510.768C593.525 517.403 591.217 522.739 586.602 526.778C581.986 530.874 576.793 532.922 571.024 532.922C566.639 532.922 562.456 531.855 558.475 529.72C554.494 527.586 552.504 525.653 552.504 523.922C552.504 521.672 553.369 519.681 555.1 517.951C556.196 516.739 557.033 515.902 557.61 515.441C558.245 514.979 558.966 514.749 559.773 514.749C560.581 514.749 561.418 515.095 562.283 515.787C565.052 517.922 568.053 518.989 571.284 518.989C573.476 518.989 575.264 518.124 576.649 516.393C578.034 514.662 578.726 512.585 578.726 510.162V507.566ZM563.322 489.911C563.322 491.757 564.043 493.43 565.485 494.93C566.985 496.43 568.774 497.18 570.851 497.18C572.986 497.18 574.745 496.43 576.13 494.93C577.515 493.373 578.207 491.699 578.207 489.911C578.207 488.065 577.543 486.363 576.216 484.805C574.889 483.19 573.101 482.382 570.851 482.382C568.601 482.382 566.783 483.161 565.399 484.718C564.014 486.276 563.322 488.007 563.322 489.911ZM644.408 485.065C644.408 488.584 643.514 491.209 641.726 492.94C639.995 494.613 638.062 495.45 635.927 495.45H615.417C615.417 497.065 616.369 498.421 618.273 499.517C620.176 500.613 622.08 501.161 623.984 501.161C627.331 501.161 629.956 500.815 631.86 500.123L632.812 499.777C634.196 499.142 635.35 498.825 636.273 498.825C638.12 498.825 639.706 500.123 641.033 502.719C641.783 504.277 642.158 505.604 642.158 506.7C642.158 511.835 636.014 514.402 623.725 514.402C619.455 514.402 615.647 513.681 612.301 512.239C609.013 510.739 606.445 508.777 604.599 506.354C600.964 501.681 599.147 496.459 599.147 490.69C599.147 483.42 601.483 477.622 606.157 473.295C610.888 468.91 616.773 466.718 623.811 466.718C631.831 466.718 637.716 469.545 641.466 475.199C643.428 478.199 644.408 481.488 644.408 485.065ZM626.148 487.574C628.34 487.574 629.437 486.651 629.437 484.805C629.437 483.478 628.917 482.411 627.879 481.603C626.898 480.795 625.456 480.391 623.552 480.391C621.705 480.391 619.859 481.17 618.013 482.728C616.167 484.228 615.244 485.843 615.244 487.574H626.148ZM675.864 467.756C679.845 467.756 682.182 468.852 682.874 471.045C683.22 472.141 683.394 473.583 683.394 475.372C683.394 477.16 683.192 478.603 682.788 479.699C682.442 480.737 681.865 481.488 681.057 481.949C679.845 482.641 678.086 482.988 675.778 482.988L670.239 482.641V505.835C670.239 508.027 669.951 509.671 669.374 510.768C668.854 511.806 668.018 512.498 666.864 512.845C665.768 513.191 664.325 513.364 662.537 513.364C660.748 513.364 659.306 513.191 658.21 512.845C657.171 512.441 656.421 511.835 655.96 511.027C655.498 510.162 655.21 509.383 655.094 508.691C655.037 507.998 655.008 506.989 655.008 505.662V482.728H651.892C650.392 482.613 649.325 482.266 648.69 481.689C647.594 480.593 647.046 478.487 647.046 475.372C647.046 470.641 648.748 468.275 652.152 468.275H655.008V463.689C655.008 459.246 656.594 455.236 659.768 451.659C662.941 448.025 667.527 446.207 673.528 446.207C674.855 446.207 675.836 446.265 676.47 446.38C677.163 446.438 677.941 446.698 678.807 447.159C680.365 447.909 681.143 450.13 681.143 453.823C681.143 456.592 680.653 458.583 679.672 459.794C678.865 460.717 677.595 461.237 675.864 461.352C675.345 461.352 674.537 461.352 673.441 461.352C671.306 461.352 670.239 462.073 670.239 463.516V468.275L675.864 467.756ZM731.289 485.065C731.289 488.584 730.394 491.209 728.606 492.94C726.875 494.613 724.942 495.45 722.807 495.45H702.297C702.297 497.065 703.249 498.421 705.153 499.517C707.057 500.613 708.961 501.161 710.865 501.161C714.211 501.161 716.836 500.815 718.74 500.123L719.692 499.777C721.077 499.142 722.23 498.825 723.154 498.825C725 498.825 726.586 500.123 727.913 502.719C728.663 504.277 729.038 505.604 729.038 506.7C729.038 511.835 722.894 514.402 710.605 514.402C706.336 514.402 702.528 513.681 699.181 512.239C695.893 510.739 693.325 508.777 691.479 506.354C687.844 501.681 686.027 496.459 686.027 490.69C686.027 483.42 688.364 477.622 693.037 473.295C697.768 468.91 703.653 466.718 710.692 466.718C718.711 466.718 724.596 469.545 728.346 475.199C730.308 478.199 731.289 481.488 731.289 485.065ZM713.028 487.574C715.221 487.574 716.317 486.651 716.317 484.805C716.317 483.478 715.798 482.411 714.759 481.603C713.778 480.795 712.336 480.391 710.432 480.391C708.586 480.391 706.739 481.17 704.893 482.728C703.047 484.228 702.124 485.843 702.124 487.574H713.028ZM737.281 509.21C736.185 508.518 735.637 507.421 735.637 505.921C735.637 504.421 736.733 502.142 738.925 499.084C739.56 498.104 740.57 497.613 741.954 497.613C743.397 497.613 745.329 498.334 747.753 499.777C750.176 501.161 752.368 501.854 754.33 501.854C757.849 501.854 759.609 501.161 759.609 499.777C759.609 498.681 757.676 497.873 753.811 497.354C750.176 496.834 746.57 495.478 742.993 493.286C741.32 492.248 739.935 490.632 738.839 488.44C737.742 486.19 737.194 483.536 737.194 480.478C737.194 471.362 743.454 466.804 755.974 466.804C760.07 466.804 764.282 467.785 768.609 469.747C770.629 470.67 771.638 471.824 771.638 473.208C771.638 474.593 771.004 476.295 769.734 478.314C768.465 480.334 767.167 481.343 765.84 481.343C765.148 481.343 763.849 480.911 761.945 480.045C760.099 479.18 758.08 478.747 755.888 478.747C752.484 478.747 750.782 479.382 750.782 480.651C750.782 482.382 752.743 483.507 756.666 484.026C760.474 484.43 764.167 485.526 767.744 487.315C769.417 488.122 770.802 489.536 771.898 491.555C773.052 493.517 773.629 495.998 773.629 498.998C773.629 501.998 773.052 504.565 771.898 506.7C770.802 508.777 769.244 510.335 767.225 511.373C763.532 513.162 758.888 514.056 753.291 514.056C747.753 514.056 742.416 512.441 737.281 509.21ZM804.406 482.988L798.781 482.641V494.584C798.781 496.142 799.011 497.267 799.473 497.959C799.992 498.652 800.915 498.998 802.242 498.998C803.627 498.998 804.666 499.056 805.358 499.171C806.108 499.229 806.887 499.488 807.695 499.95C809.021 500.7 809.685 502.633 809.685 505.748C809.685 509.383 808.877 511.604 807.262 512.412C806.396 512.816 805.618 513.075 804.925 513.191C804.291 513.248 803.339 513.277 802.069 513.277C796.069 513.277 791.511 511.922 788.396 509.21C785.28 506.498 783.722 501.911 783.722 495.45V482.641C782.626 482.814 781.443 482.901 780.174 482.901C778.905 482.901 777.837 482.411 776.972 481.43C776.164 480.449 775.76 478.776 775.76 476.41C775.76 474.045 775.905 472.343 776.193 471.304C776.482 470.208 776.885 469.429 777.405 468.968C778.328 468.218 779.482 467.843 780.866 467.843L783.722 468.189V459.275C783.722 457.948 783.751 456.967 783.809 456.333C783.924 455.698 784.213 455.006 784.674 454.256C785.424 452.813 787.646 452.092 791.338 452.092C795.261 452.092 797.598 453.159 798.348 455.294C798.636 456.217 798.781 457.688 798.781 459.708V468.189C801.319 467.958 803.223 467.843 804.492 467.843C805.819 467.843 806.8 467.9 807.435 468.016C808.127 468.073 808.906 468.333 809.772 468.795C811.272 469.545 812.022 471.766 812.022 475.458C812.022 479.093 811.243 481.314 809.685 482.122C808.82 482.526 808.041 482.786 807.348 482.901C806.714 482.959 805.733 482.988 804.406 482.988Z" fill="#BEFF6C"/>
<path d="M579.419 543.844C579.765 540.613 582.044 538.998 586.255 538.998C588.505 538.998 590.179 539.171 591.275 539.517C592.371 539.863 593.121 540.469 593.525 541.334C593.986 542.2 594.246 542.979 594.304 543.671C594.419 544.306 594.477 545.286 594.477 546.613V576.903C594.477 578.23 594.419 579.24 594.304 579.932C594.246 580.567 594.015 581.317 593.611 582.182C592.804 583.682 590.813 584.432 587.64 584.432C584.524 584.432 582.419 584.057 581.322 583.307C580.284 582.5 579.678 581.346 579.505 579.846C577.37 582.903 573.793 584.432 568.774 584.432C563.812 584.432 559.196 582.153 554.927 577.596C550.658 573.038 548.523 567.759 548.523 561.758C548.523 555.7 550.658 550.421 554.927 545.921C559.254 541.363 563.985 539.084 569.12 539.084C571.082 539.084 572.87 539.43 574.486 540.123C576.101 540.815 577.226 541.479 577.861 542.113C578.495 542.69 579.015 543.267 579.419 543.844ZM563.668 561.845C563.668 563.749 564.418 565.48 565.918 567.037C567.418 568.537 569.235 569.287 571.37 569.287C573.505 569.287 575.264 568.509 576.649 566.951C578.092 565.393 578.813 563.691 578.813 561.845C578.813 559.941 578.12 558.181 576.736 556.566C575.409 554.95 573.591 554.143 571.284 554.143C569.033 554.143 567.187 554.95 565.745 556.566C564.36 558.181 563.668 559.941 563.668 561.845ZM615.654 561.845C615.654 564.268 616.462 566.172 618.077 567.557C619.693 568.884 621.395 569.547 623.183 569.547C625.029 569.547 626.731 569.028 628.289 567.989C629.905 566.893 631.203 566.345 632.184 566.345C633.914 566.345 636.02 567.874 638.501 570.932C639.828 572.605 640.492 574.105 640.492 575.432C640.492 577.624 638.905 579.673 635.732 581.576C632.443 583.884 628.405 585.038 623.616 585.038C618.25 585.038 613.087 583.105 608.125 579.24C605.759 577.394 603.827 574.942 602.326 571.884C600.826 568.768 600.076 565.364 600.076 561.672C600.076 557.922 600.826 554.546 602.326 551.546C603.827 548.489 605.759 546.036 608.125 544.19C612.913 540.382 618.019 538.478 623.443 538.478C625.635 538.478 627.77 538.796 629.847 539.43C631.924 540.007 633.453 540.584 634.434 541.161L635.818 542.027C636.857 542.719 637.665 543.267 638.242 543.671C639.742 544.825 640.492 546.152 640.492 547.652C640.492 549.094 639.886 550.739 638.674 552.585C636.597 555.758 634.607 557.345 632.703 557.345C631.607 557.345 630.049 556.71 628.03 555.441C626.991 554.46 625.491 553.97 623.529 553.97C621.625 553.97 619.837 554.662 618.164 556.047C616.491 557.431 615.654 559.364 615.654 561.845ZM675.68 543.844C676.026 540.613 678.305 538.998 682.517 538.998C684.767 538.998 686.44 539.171 687.536 539.517C688.632 539.863 689.382 540.469 689.786 541.334C690.248 542.2 690.507 542.979 690.565 543.671C690.68 544.306 690.738 545.286 690.738 546.613V576.903C690.738 578.23 690.68 579.24 690.565 579.932C690.507 580.567 690.277 581.317 689.873 582.182C689.065 583.682 687.075 584.432 683.901 584.432C680.786 584.432 678.68 584.057 677.584 583.307C676.545 582.5 675.939 581.346 675.766 579.846C673.632 582.903 670.055 584.432 665.035 584.432C660.073 584.432 655.458 582.153 651.188 577.596C646.919 573.038 644.784 567.759 644.784 561.758C644.784 555.7 646.919 550.421 651.188 545.921C655.515 541.363 660.246 539.084 665.381 539.084C667.343 539.084 669.131 539.43 670.747 540.123C672.362 540.815 673.487 541.479 674.122 542.113C674.757 542.69 675.276 543.267 675.68 543.844ZM659.929 561.845C659.929 563.749 660.679 565.48 662.179 567.037C663.679 568.537 665.497 569.287 667.631 569.287C669.766 569.287 671.526 568.509 672.91 566.951C674.353 565.393 675.074 563.691 675.074 561.845C675.074 559.941 674.382 558.181 672.997 556.566C671.67 554.95 669.853 554.143 667.545 554.143C665.295 554.143 663.449 554.95 662.006 556.566C660.621 558.181 659.929 559.941 659.929 561.845ZM728.185 520.045C728.647 519.18 729.426 518.574 730.522 518.228C731.618 517.881 733.06 517.708 734.849 517.708C736.695 517.708 738.166 517.881 739.263 518.228C740.359 518.574 741.109 519.18 741.513 520.045C741.974 520.91 742.234 521.689 742.292 522.382C742.407 523.016 742.465 523.997 742.465 525.324V576.99C742.465 578.317 742.407 579.326 742.292 580.019C742.234 580.653 741.974 581.375 741.513 582.182C740.647 583.74 738.195 584.519 734.157 584.519C730.176 584.519 727.954 583.105 727.493 580.278C725.07 583.048 721.695 584.432 717.367 584.432C712.175 584.432 707.444 582.182 703.175 577.682C698.905 573.124 696.77 567.845 696.77 561.845C696.77 555.787 698.905 550.479 703.175 545.921C707.502 541.363 712.233 539.084 717.367 539.084C721.637 539.084 724.954 540.527 727.32 543.411V525.238C727.32 523.911 727.349 522.93 727.406 522.295C727.522 521.603 727.781 520.853 728.185 520.045ZM714.165 567.037C715.665 568.595 717.483 569.374 719.618 569.374C721.752 569.374 723.512 568.595 724.897 567.037C726.339 565.48 727.06 563.778 727.06 561.931C727.06 560.027 726.368 558.268 724.983 556.652C723.656 555.037 721.839 554.229 719.531 554.229C717.223 554.229 715.377 555.037 713.992 556.652C712.608 558.21 711.915 559.941 711.915 561.845C711.915 563.749 712.665 565.48 714.165 567.037ZM793.322 556.393C793.322 559.912 792.427 562.537 790.639 564.268C788.908 565.941 786.975 566.778 784.841 566.778H764.33C764.33 568.393 765.282 569.749 767.186 570.845C769.09 571.941 770.994 572.49 772.898 572.49C776.244 572.49 778.869 572.143 780.773 571.451L781.725 571.105C783.11 570.47 784.264 570.153 785.187 570.153C787.033 570.153 788.62 571.451 789.947 574.047C790.697 575.605 791.072 576.932 791.072 578.028C791.072 583.163 784.927 585.731 772.638 585.731C768.369 585.731 764.561 585.009 761.215 583.567C757.926 582.067 755.359 580.105 753.512 577.682C749.878 573.009 748.06 567.787 748.06 562.018C748.06 554.748 750.397 548.95 755.07 544.623C759.801 540.238 765.686 538.046 772.725 538.046C780.744 538.046 786.629 540.873 790.379 546.527C792.341 549.527 793.322 552.816 793.322 556.393ZM775.061 558.902C777.254 558.902 778.35 557.979 778.35 556.133C778.35 554.806 777.831 553.739 776.792 552.931C775.811 552.123 774.369 551.719 772.465 551.719C770.619 551.719 768.773 552.498 766.926 554.056C765.08 555.556 764.157 557.172 764.157 558.902H775.061ZM813.853 545.056C816.565 540.959 819.825 538.911 823.632 538.911C829.517 538.911 833.902 541.421 836.787 546.44C837.422 545.575 838.172 544.681 839.037 543.758C839.96 542.777 841.402 541.738 843.364 540.642C845.326 539.488 847.345 538.911 849.422 538.911C854.038 538.911 857.903 540.7 861.019 544.277C864.134 547.796 865.692 553.652 865.692 561.845V576.99C865.692 578.317 865.634 579.326 865.519 580.019C865.461 580.653 865.202 581.403 864.74 582.269C863.99 583.827 861.769 584.605 858.076 584.605C854.442 584.605 852.22 583.798 851.413 582.182C851.009 581.317 850.749 580.567 850.634 579.932C850.576 579.24 850.547 578.23 850.547 576.903V561.758C850.547 556.739 848.759 554.229 845.181 554.229C843.162 554.229 841.778 554.893 841.027 556.22C840.335 557.547 839.989 559.422 839.989 561.845V576.99C839.989 578.374 839.931 579.384 839.816 580.019C839.758 580.653 839.499 581.403 839.037 582.269C838.229 583.827 835.979 584.605 832.287 584.605C828.652 584.605 826.431 583.798 825.623 582.182C825.219 581.317 824.959 580.567 824.844 579.932C824.786 579.24 824.758 578.23 824.758 576.903V561.758C824.758 556.739 822.969 554.229 819.392 554.229C815.93 554.229 814.199 556.739 814.199 561.758V577.076C814.199 578.403 814.142 579.413 814.026 580.105C813.969 580.74 813.709 581.49 813.247 582.355C812.382 583.855 810.132 584.605 806.497 584.605C802.862 584.605 800.641 583.827 799.833 582.269C799.43 581.403 799.17 580.653 799.055 580.019C798.997 579.384 798.968 578.374 798.968 576.99V546.527C798.968 545.2 798.997 544.219 799.055 543.584C799.17 542.892 799.458 542.142 799.92 541.334C800.785 539.777 802.834 538.998 806.064 538.998C809.295 538.998 811.401 539.517 812.382 540.555C813.363 541.594 813.853 543.094 813.853 545.056ZM912.365 539.517C915.769 541.017 917.471 542.834 917.471 544.969C917.471 546.008 917.241 546.988 916.779 547.912C916.317 548.835 916.087 549.325 916.087 549.383L893.413 600.097C892.951 601.193 892.547 602.029 892.201 602.606C891.912 603.183 891.422 603.731 890.73 604.251C890.037 604.77 889.172 605.029 888.133 605.029C887.095 605.029 885.566 604.597 883.547 603.731C880.143 602.231 878.441 600.443 878.441 598.366C878.441 596.981 881.21 590.375 886.749 578.548L869.527 549.556C868.373 547.652 867.796 546.238 867.796 545.315C867.796 543.469 869.354 541.623 872.469 539.777C874.431 538.623 875.96 538.046 877.056 538.046C878.152 538.046 879.047 538.277 879.739 538.738C880.431 539.2 880.922 539.69 881.21 540.209C881.556 540.671 883.143 543.354 885.97 548.258C888.855 553.104 891.595 557.633 894.191 561.845C894.48 560.922 896.038 557.374 898.865 551.2C901.692 544.969 903.192 541.652 903.365 541.248C903.596 540.844 903.942 540.354 904.403 539.777C905.153 538.796 906.192 538.305 907.519 538.305C908.904 538.305 910.519 538.709 912.365 539.517Z" fill="#BEFF6C"/>
</svg>
